
<svg width="48" height="48" viewBox="0 0 48 48" fill="none" xmlns="http://www.w3.org/2000/svg">
<path d="M13.0335 18.8026C12.6755 18.8026 12.3321 18.9448 12.0789 19.198C11.8258 19.4511 11.6835 19.7945 11.6835 20.1526C11.6835 20.5106 11.8258 20.854 12.0789 21.1071C12.3321 21.3603 12.6755 21.5026 13.0335 21.5026H27.5085C27.8666 21.5026 28.21 21.3603 28.4631 21.1071C28.7163 20.854 28.8585 20.5106 28.8585 20.1526C28.8585 19.7945 28.7163 19.4511 28.4631 19.198C28.21 18.9448 27.8666 18.8026 27.5085 18.8026H13.0335ZM19.542 26.466H13.0335C12.6755 26.466 12.3321 26.6083 12.0789 26.8615C11.8258 27.1146 11.6835 27.458 11.6835 27.8161C11.6835 28.1741 11.8258 28.5175 12.0789 28.7706C12.3321 29.0238 12.6755 29.166 13.0335 29.166H19.542C19.9001 29.166 20.2435 29.0238 20.4966 28.7706C20.7498 28.5175 20.892 28.1741 20.892 27.8161C20.892 27.458 20.7498 27.1146 20.4966 26.8615C20.2435 26.6083 19.9001 26.466 19.542 26.466Z" fill="#788898"/>
<path d="M19.3425 43.65H9.06752C8.00359 43.6473 6.98424 43.2224 6.23333 42.4686C5.48242 41.7149 5.06133 40.694 5.06252 39.63V12.285C5.06133 11.2211 5.48242 10.2002 6.23333 9.44644C6.98424 8.69271 8.00359 8.26781 9.06752 8.26503H11.856V8.60403C11.8572 9.55074 12.2339 10.4583 12.9035 11.1276C13.5731 11.7969 14.4808 12.1732 15.4275 12.174H28.3275C29.2742 12.1732 30.182 11.7969 30.8515 11.1276C31.5211 10.4583 31.8978 9.55074 31.899 8.60403V8.26503H34.674C36.9195 8.26503 38.6775 10.0305 38.6775 12.285V19.98C38.6775 20.3381 38.8197 20.6815 39.0729 20.9346C39.3261 21.1878 39.6695 21.33 40.0275 21.33C40.3856 21.33 40.7289 21.1878 40.9821 20.9346C41.2353 20.6815 41.3775 20.3381 41.3775 19.98V12.285C41.3775 10.5054 40.6716 8.79838 39.4146 7.53856C38.1576 6.27875 36.4522 5.569 34.6725 5.56503H31.8975V5.22003C31.8963 4.27331 31.5196 3.36573 30.85 2.69644C30.1805 2.02715 29.2727 1.65082 28.326 1.65002H15.426C14.4793 1.65082 13.5716 2.02715 12.902 2.69644C12.2324 3.36573 11.8557 4.27331 11.8545 5.22003V5.56503H9.06752C7.28773 5.569 5.58217 6.2787 4.32493 7.53847C3.06769 8.79824 2.36142 10.5052 2.36102 12.285V39.63C2.36102 43.335 5.37002 46.35 9.06752 46.35H19.3425C19.7006 46.35 20.0439 46.2078 20.2971 45.9546C20.5503 45.7015 20.6925 45.3581 20.6925 45C20.6925 44.642 20.5503 44.2986 20.2971 44.0454C20.0439 43.7923 19.7006 43.65 19.3425 43.65ZM14.5575 5.22003C14.5575 4.74003 14.9475 4.35003 15.4275 4.35003H28.3275C28.8075 4.35003 29.1975 4.74003 29.1975 5.22003V8.60253C29.1975 9.08253 28.8075 9.47253 28.3275 9.47253H15.4275C15.1968 9.47253 14.9755 9.38087 14.8123 9.21771C14.6492 9.05455 14.5575 8.83327 14.5575 8.60253V5.22003Z" fill="#788898"/>
<path d="M44.205 26.037C42.357 24.1875 39.1305 24.186 37.281 26.037L25.3125 38.0055C24.9281 38.389 24.6732 38.8831 24.5835 39.4185L23.9265 43.302C23.8573 43.7131 23.8874 44.1347 24.0143 44.5317C24.1412 44.9287 24.3612 45.2895 24.656 45.5842C24.9508 45.8788 25.3118 46.0987 25.7088 46.2254C26.1059 46.3521 26.5275 46.382 26.9385 46.3125L30.8205 45.657C31.359 45.5655 31.848 45.3135 32.2335 44.928L44.202 32.9595C45.1186 32.041 45.6337 30.7966 45.6343 29.4989C45.6348 28.2013 45.1208 26.9563 44.205 26.037ZM30.372 42.996L26.5905 43.7505L27.2235 39.915L35.802 31.3365L38.9085 34.443L30.372 42.996ZM42.294 31.05L40.815 32.532L37.71 29.427L39.1905 27.9465C39.3937 27.7422 39.6354 27.5801 39.9016 27.4697C40.1678 27.3592 40.4533 27.3026 40.7415 27.303C41.1754 27.3035 41.5995 27.4324 41.9602 27.6737C42.3209 27.9149 42.602 28.2576 42.7681 28.6585C42.9342 29.0593 42.9778 29.5005 42.8935 29.9261C42.8091 30.3517 42.6005 30.7429 42.294 31.05Z" fill="#788898"/>
</svg>
