
<svg width="11" height="11" viewBox="0 0 11 11" fill="none" xmlns="http://www.w3.org/2000/svg">
<path d="M5.64999 3.5C5.49999 3.5 5.39999 3.45 5.29999 3.35L3.39999 1.45L1.49999 3.35C1.29999 3.55 0.999994 3.55 0.799994 3.35C0.599994 3.15 0.599994 2.85 0.799994 2.65L2.99999 0.4C3.19999 0.2 3.49999 0.2 3.69999 0.4L5.99999 2.65C6.19999 2.85 6.19999 3.15 5.99999 3.35C5.89999 3.45 5.74999 3.5 5.64999 3.5Z" fill="#788898"/>
<path d="M3.35156 7.75C3.05156 7.75 2.85156 7.55 2.85156 7.25V0.75C2.85156 0.45 3.05156 0.25 3.35156 0.25C3.65156 0.25 3.85156 0.45 3.85156 0.75V7.25C3.85156 7.55 3.65156 7.75 3.35156 7.75ZM7.65156 10.75C7.50156 10.75 7.40156 10.7 7.30156 10.6L5.00156 8.35C4.80156 8.15 4.80156 7.85 5.00156 7.65C5.20156 7.45 5.50156 7.45 5.70156 7.65L7.60156 9.55L9.50156 7.65C9.70156 7.45 10.0016 7.45 10.2016 7.65C10.4016 7.85 10.4016 8.15 10.2016 8.35L8.00156 10.6C7.90156 10.7 7.75156 10.75 7.65156 10.75Z" fill="#788898"/>
<path d="M7.60001 10.75C7.30001 10.75 7.10001 10.55 7.10001 10.25V3.75C7.10001 3.45 7.30001 3.25 7.60001 3.25C7.90001 3.25 8.10001 3.45 8.10001 3.75V10.25C8.10001 10.55 7.90001 10.75 7.60001 10.75Z" fill="#788898"/>
</svg>
